<svg id="logo-main" viewBox="0 0 144 42" fill="none" xmlns="http://www.w3.org/2000/svg">
                                        <style>
                                            .stroke {
                                                stroke-width: 2.35;
                                                stroke-linecap: round;
                                            }

                                            .letter {
                                                fill: #353738;
                                                fill-rule: 'evenodd';
                                                clip-rule: 'evenodd';
                                            }
                                        </style>
                                        <g id="logo-wrapper">
                                            <g id="text" style="translate: none; rotate: none; scale: none; opacity: 1;" data-svg-origin="91.11100006103516 35.05929946899414" transform="matrix(1,0,0,1,0,0)">
                                                <path class="letter" d="M95.6286 35.2129V40.7288H94.8103V38.2434H91.9331V40.7288H91.111V35.2129H91.9331V37.6481H94.8103V35.2129H95.6286Z"></path>
                                                <path class="letter" d="M100.135 40.1718C100.043 40.2793 99.9365 40.3722 99.8161 40.4502C99.6958 40.5284 99.5677 40.5917 99.4319 40.6404C99.2962 40.689 99.156 40.7249 99.0113 40.7479C98.8664 40.7709 98.7237 40.7824 98.583 40.7824C98.314 40.7824 98.0649 40.7371 97.8357 40.6462C97.6067 40.5552 97.408 40.422 97.2403 40.2468C97.0726 40.0713 96.9419 39.8536 96.8486 39.5937C96.755 39.3338 96.7084 39.0348 96.7084 38.6967C96.7084 38.4254 96.7507 38.1725 96.8351 37.9381C96.9196 37.7039 97.0406 37.4997 97.1981 37.3255C97.3556 37.1513 97.5483 37.0143 97.7764 36.9144C98.0041 36.8146 98.2601 36.7646 98.5445 36.7646C98.7828 36.7646 99.0023 36.8038 99.2033 36.8818C99.4045 36.9599 99.5777 37.0733 99.7239 37.2218C99.8698 37.3704 99.9844 37.5534 100.068 37.7711C100.151 37.9886 100.193 38.2372 100.193 38.5162C100.193 38.6314 100.18 38.7089 100.154 38.7486C100.129 38.7884 100.081 38.8081 100.012 38.8081H97.4537C97.4613 39.0411 97.4945 39.2441 97.5535 39.417C97.6124 39.5899 97.6937 39.7339 97.7974 39.8491C97.9009 39.9644 98.0246 40.0501 98.1682 40.1065C98.3113 40.1628 98.4715 40.191 98.6482 40.191C98.8147 40.191 98.9588 40.1718 99.0803 40.1333C99.2022 40.095 99.3072 40.0533 99.3955 40.0086C99.4837 39.9636 99.5581 39.9221 99.6182 39.8836C99.6784 39.8454 99.7316 39.8261 99.7776 39.8261C99.8391 39.8261 99.8864 39.8491 99.9198 39.8952L100.135 40.1718ZM99.5164 38.3435C99.5164 38.1948 99.4952 38.0578 99.453 37.9324C99.4107 37.8069 99.3485 37.6981 99.2668 37.6059C99.1848 37.5137 99.0848 37.442 98.9671 37.3907C98.8494 37.3397 98.7136 37.314 98.5599 37.314C98.2448 37.314 97.9971 37.4049 97.8166 37.5867C97.636 37.7684 97.5215 38.0208 97.4726 38.3435H99.5164Z"></path>
                                                <path class="letter" d="M101.141 37.3716C101.359 37.1641 101.595 37.0092 101.85 36.9069C102.105 36.8044 102.385 36.7532 102.689 36.7532C102.913 36.7532 103.109 36.7897 103.281 36.8627C103.453 36.9357 103.597 37.0374 103.715 37.1681C103.833 37.2986 103.922 37.4548 103.982 37.6367C104.042 37.8185 104.072 38.0194 104.072 38.2396V40.7288H103.738C103.664 40.7288 103.608 40.7165 103.569 40.6923C103.531 40.668 103.5 40.6223 103.477 40.5558L103.396 40.2141C103.296 40.3062 103.198 40.3876 103.101 40.4579C103.003 40.5285 102.902 40.5886 102.795 40.6385C102.689 40.6885 102.575 40.7262 102.455 40.7518C102.335 40.7775 102.201 40.7902 102.056 40.7902C101.902 40.7902 101.758 40.769 101.623 40.7268C101.489 40.6845 101.372 40.6198 101.272 40.5328C101.172 40.4458 101.093 40.3371 101.036 40.2064C100.978 40.0757 100.949 39.9234 100.949 39.7493C100.949 39.5956 100.991 39.4478 101.074 39.3056C101.157 39.1634 101.293 39.0362 101.481 38.9234C101.669 38.8107 101.915 38.7185 102.219 38.6468C102.522 38.5751 102.896 38.5343 103.339 38.524V38.2396C103.339 37.9452 103.276 37.725 103.151 37.579C103.025 37.4331 102.84 37.3601 102.597 37.3601C102.433 37.3601 102.296 37.3806 102.184 37.4216C102.073 37.4625 101.977 37.508 101.896 37.5578C101.815 37.6078 101.745 37.6533 101.685 37.6942C101.625 37.7352 101.563 37.7557 101.499 37.7557C101.447 37.7557 101.403 37.7417 101.366 37.7135C101.329 37.6853 101.299 37.652 101.276 37.6135L101.141 37.3716ZM103.339 38.9964C103.034 39.0067 102.775 39.0304 102.563 39.0674C102.35 39.1046 102.177 39.1539 102.044 39.2154C101.911 39.2768 101.815 39.3491 101.756 39.4323C101.697 39.5156 101.668 39.6083 101.668 39.7108C101.668 39.8082 101.684 39.892 101.715 39.9625C101.747 40.0329 101.791 40.0904 101.846 40.1354C101.901 40.1801 101.966 40.2129 102.04 40.2332C102.114 40.2537 102.195 40.2639 102.282 40.2639C102.397 40.2639 102.503 40.2524 102.599 40.2294C102.695 40.2064 102.785 40.1737 102.87 40.1316C102.955 40.0892 103.035 40.0374 103.112 39.9759C103.189 39.9145 103.265 39.844 103.339 39.7647V38.9964Z"></path>
                                                <path class="letter" d="M108.587 35.0593V40.7287H108.133C108.028 40.7287 107.963 40.6787 107.937 40.579L107.872 40.1296C107.706 40.3268 107.517 40.485 107.305 40.604C107.094 40.723 106.85 40.7825 106.574 40.7825C106.351 40.7825 106.149 40.7389 105.969 40.6519C105.788 40.5648 105.634 40.4375 105.506 40.2698C105.378 40.1021 105.279 39.8941 105.21 39.6457C105.141 39.3972 105.106 39.1116 105.106 38.7889C105.106 38.4997 105.145 38.2308 105.222 37.9823C105.299 37.7339 105.41 37.5189 105.556 37.337C105.702 37.1553 105.879 37.0124 106.086 36.9088C106.293 36.8051 106.528 36.7531 106.789 36.7531C107.025 36.7531 107.225 36.7916 107.39 36.8684C107.555 36.9451 107.703 37.0541 107.834 37.1948V35.0593H108.587ZM107.834 37.7711C107.711 37.6097 107.578 37.4972 107.436 37.433C107.294 37.369 107.135 37.337 106.958 37.337C106.615 37.337 106.349 37.4605 106.161 37.7077C105.973 37.9548 105.879 38.3153 105.879 38.7889C105.879 39.0373 105.9 39.2493 105.942 39.4247C105.984 39.6002 106.046 39.7436 106.126 39.8549C106.207 39.9663 106.306 40.0481 106.424 40.1006C106.542 40.1531 106.675 40.1794 106.823 40.1794C107.041 40.1794 107.229 40.1308 107.388 40.0336C107.547 39.9361 107.695 39.7992 107.834 39.6225V37.7711Z"></path>
                                                <path class="letter" d="M110.648 40.7288H109.895V35.0594H110.648V40.7288Z"></path>
                                                <path class="letter" d="M115.162 40.1718C115.07 40.2793 114.964 40.3722 114.844 40.4502C114.723 40.5284 114.595 40.5917 114.459 40.6404C114.324 40.689 114.183 40.7249 114.039 40.7479C113.894 40.7709 113.751 40.7824 113.61 40.7824C113.341 40.7824 113.092 40.7371 112.863 40.6462C112.634 40.5552 112.435 40.422 112.268 40.2468C112.1 40.0713 111.97 39.8536 111.876 39.5937C111.782 39.3338 111.736 39.0348 111.736 38.6967C111.736 38.4254 111.778 38.1725 111.863 37.9381C111.947 37.7039 112.068 37.4997 112.226 37.3255C112.383 37.1513 112.576 37.0143 112.804 36.9144C113.032 36.8146 113.287 36.7646 113.572 36.7646C113.81 36.7646 114.03 36.8038 114.231 36.8818C114.432 36.9599 114.605 37.0733 114.751 37.2218C114.897 37.3704 115.012 37.5534 115.095 37.7711C115.178 37.9886 115.22 38.2372 115.22 38.5162C115.22 38.6314 115.207 38.7089 115.181 38.7486C115.156 38.7884 115.109 38.8081 115.039 38.8081H112.481C112.489 39.0411 112.522 39.2441 112.581 39.417C112.64 39.5899 112.721 39.7339 112.825 39.8491C112.928 39.9644 113.052 40.0501 113.196 40.1065C113.339 40.1628 113.499 40.191 113.676 40.191C113.842 40.191 113.986 40.1718 114.108 40.1333C114.23 40.095 114.335 40.0533 114.423 40.0086C114.511 39.9636 114.586 39.9221 114.646 39.8836C114.706 39.8454 114.759 39.8261 114.805 39.8261C114.866 39.8261 114.914 39.8491 114.947 39.8952L115.162 40.1718ZM114.544 38.3435C114.544 38.1948 114.523 38.0578 114.481 37.9324C114.438 37.8069 114.376 37.6981 114.294 37.6059C114.212 37.5137 114.112 37.442 113.995 37.3907C113.877 37.3397 113.741 37.314 113.587 37.314C113.272 37.314 113.025 37.4049 112.844 37.5867C112.663 37.7684 112.549 38.0208 112.5 38.3435H114.544Z"></path>
                                                <path class="letter" d="M118.57 37.4983C118.549 37.5318 118.527 37.5553 118.504 37.5695C118.481 37.5835 118.452 37.5905 118.416 37.5905C118.375 37.5905 118.33 37.5765 118.28 37.5483C118.229 37.5201 118.17 37.4893 118.099 37.4561C118.029 37.4228 117.946 37.3921 117.851 37.3639C117.757 37.3358 117.644 37.3216 117.513 37.3216C117.406 37.3216 117.308 37.3351 117.219 37.3621C117.131 37.3889 117.056 37.4261 116.995 37.4733C116.933 37.5208 116.886 37.5771 116.853 37.6423C116.819 37.7077 116.803 37.7775 116.803 37.8517C116.803 37.949 116.831 38.0297 116.889 38.0939C116.947 38.1577 117.022 38.2129 117.115 38.2589C117.209 38.3049 117.315 38.3466 117.435 38.3838C117.554 38.4209 117.675 38.46 117.799 38.5008C117.924 38.5418 118.045 38.5886 118.164 38.6411C118.284 38.6935 118.39 38.759 118.483 38.837C118.577 38.9152 118.652 39.0092 118.71 39.1194C118.768 39.2294 118.796 39.3639 118.796 39.5226C118.796 39.7043 118.764 39.8728 118.698 40.0277C118.633 40.1827 118.537 40.3164 118.41 40.4291C118.284 40.5418 118.127 40.6301 117.94 40.6941C117.753 40.7583 117.539 40.7901 117.298 40.7901C117.029 40.7901 116.781 40.7453 116.553 40.6558C116.325 40.5661 116.134 40.4523 115.98 40.3139L116.157 40.0259C116.178 39.99 116.203 39.9625 116.234 39.9432C116.265 39.924 116.306 39.9145 116.357 39.9145C116.406 39.9145 116.456 39.9324 116.507 39.9682C116.558 40.004 116.619 40.043 116.691 40.0854C116.763 40.1277 116.85 40.166 116.952 40.2006C117.055 40.2352 117.183 40.2524 117.337 40.2524C117.465 40.2524 117.576 40.2364 117.671 40.2044C117.765 40.1724 117.844 40.1289 117.907 40.0739C117.97 40.0187 118.016 39.9555 118.047 39.8837C118.078 39.812 118.093 39.7365 118.093 39.6571C118.093 39.5546 118.064 39.4696 118.007 39.4016C117.949 39.3337 117.874 39.2756 117.78 39.2269C117.687 39.1782 117.58 39.1359 117.46 39.1002C117.339 39.0642 117.216 39.0259 117.091 38.9849C116.965 38.944 116.842 38.8965 116.722 38.8427C116.602 38.789 116.495 38.7212 116.401 38.6393C116.308 38.5573 116.232 38.4573 116.175 38.3396C116.117 38.2217 116.088 38.0784 116.088 37.9094C116.088 37.7583 116.119 37.6136 116.182 37.4753C116.245 37.3371 116.336 37.2154 116.455 37.1104C116.574 37.0054 116.721 36.9217 116.897 36.8587C117.072 36.796 117.273 36.7647 117.498 36.7647C117.757 36.7647 117.99 36.8055 118.199 36.8877C118.408 36.9697 118.586 37.0824 118.735 37.2256L118.57 37.4983Z"></path>
                                                <path class="letter" d="M122.16 37.4983C122.14 37.5318 122.118 37.5553 122.095 37.5695C122.072 37.5835 122.042 37.5905 122.007 37.5905C121.966 37.5905 121.92 37.5765 121.87 37.5483C121.82 37.5201 121.76 37.4893 121.69 37.4561C121.619 37.4228 121.536 37.3921 121.442 37.3639C121.347 37.3358 121.234 37.3216 121.104 37.3216C120.996 37.3216 120.898 37.3351 120.81 37.3621C120.722 37.3889 120.646 37.4261 120.585 37.4733C120.524 37.5208 120.476 37.5771 120.443 37.6423C120.41 37.7077 120.393 37.7775 120.393 37.8517C120.393 37.949 120.422 38.0297 120.479 38.0939C120.537 38.1577 120.613 38.2129 120.706 38.2589C120.8 38.3049 120.906 38.3466 121.025 38.3838C121.144 38.4209 121.266 38.46 121.39 38.5008C121.514 38.5418 121.636 38.5886 121.755 38.6411C121.874 38.6935 121.98 38.759 122.074 38.837C122.167 38.9152 122.243 39.0092 122.3 39.1194C122.358 39.2294 122.387 39.3639 122.387 39.5226C122.387 39.7043 122.354 39.8728 122.289 40.0277C122.224 40.1827 122.127 40.3164 122.001 40.4291C121.874 40.5418 121.717 40.6301 121.53 40.6941C121.343 40.7583 121.129 40.7901 120.889 40.7901C120.62 40.7901 120.371 40.7453 120.143 40.6558C119.916 40.5661 119.724 40.4523 119.571 40.3139L119.748 40.0259C119.768 39.99 119.794 39.9625 119.825 39.9432C119.855 39.924 119.896 39.9145 119.947 39.9145C119.996 39.9145 120.046 39.9324 120.097 39.9682C120.149 40.004 120.21 40.043 120.282 40.0854C120.353 40.1277 120.44 40.166 120.543 40.2006C120.645 40.2352 120.773 40.2524 120.927 40.2524C121.055 40.2524 121.167 40.2364 121.261 40.2044C121.356 40.1724 121.435 40.1289 121.497 40.0739C121.56 40.0187 121.607 39.9555 121.638 39.8837C121.669 39.812 121.684 39.7365 121.684 39.6571C121.684 39.5546 121.655 39.4696 121.597 39.4016C121.54 39.3337 121.464 39.2756 121.371 39.2269C121.277 39.1782 121.17 39.1359 121.05 39.1002C120.929 39.0642 120.807 39.0259 120.681 38.9849C120.556 38.944 120.433 38.8965 120.312 38.8427C120.192 38.789 120.085 38.7212 119.992 38.6393C119.898 38.5573 119.822 38.4573 119.765 38.3396C119.707 38.2217 119.678 38.0784 119.678 37.9094C119.678 37.7583 119.71 37.6136 119.773 37.4753C119.835 37.3371 119.926 37.2154 120.045 37.1104C120.164 37.0054 120.312 36.9217 120.487 36.8587C120.663 36.796 120.863 36.7647 121.088 36.7647C121.347 36.7647 121.581 36.8055 121.789 36.8877C121.998 36.9697 122.177 37.0824 122.325 37.2256L122.16 37.4983Z"></path>
                                                <path class="letter" d="M129.643 39.5457C129.689 39.5457 129.729 39.5637 129.762 39.5995L130.085 39.9529C129.859 40.2193 129.585 40.4253 129.261 40.5712C128.937 40.7172 128.547 40.7902 128.091 40.7902C127.692 40.7902 127.33 40.7211 127.006 40.5827C126.682 40.4445 126.405 40.2511 126.176 40.0027C125.947 39.7544 125.77 39.4573 125.644 39.1116C125.519 38.7659 125.456 38.3857 125.456 37.9708C125.456 37.5559 125.522 37.1756 125.654 36.8301C125.786 36.4842 125.971 36.1873 126.209 35.9388C126.447 35.6904 126.732 35.4972 127.064 35.3588C127.395 35.2205 127.762 35.1515 128.164 35.1515C128.556 35.1515 128.904 35.2155 129.209 35.3435C129.514 35.4715 129.779 35.6417 130.004 35.8543L129.735 36.2347C129.717 36.2628 129.695 36.2858 129.668 36.3037C129.641 36.3215 129.606 36.3307 129.563 36.3307C129.514 36.3307 129.457 36.3063 129.392 36.2575C129.326 36.209 129.241 36.1545 129.134 36.0943C129.028 36.0343 128.896 35.9798 128.74 35.9313C128.584 35.8826 128.389 35.8581 128.157 35.8581C127.883 35.8581 127.632 35.9061 127.404 36.0023C127.176 36.0983 126.979 36.2365 126.814 36.4172C126.649 36.5976 126.521 36.8191 126.43 37.0816C126.339 37.344 126.293 37.6404 126.293 37.9708C126.293 38.3063 126.341 38.6047 126.436 38.8659C126.531 39.127 126.661 39.3485 126.827 39.5302C126.994 39.7122 127.19 39.8504 127.415 39.9451C127.641 40.0399 127.884 40.0873 128.145 40.0873C128.304 40.0873 128.446 40.0776 128.574 40.0586C128.7 40.0393 128.816 40.0104 128.923 39.9721C129.029 39.9336 129.13 39.8844 129.224 39.8241C129.319 39.7639 129.413 39.6917 129.505 39.6072C129.525 39.5892 129.547 39.5745 129.57 39.563C129.593 39.5515 129.618 39.5457 129.643 39.5457Z"></path>
                                                <path class="letter" d="M136.962 35.2129V40.7288H136.248V36.8032C136.248 36.7442 136.25 36.6815 136.254 36.6148C136.257 36.5483 136.262 36.4804 136.267 36.4113L134.431 39.78C134.367 39.9055 134.268 39.9682 134.135 39.9682H134.02C133.887 39.9682 133.789 39.9055 133.728 39.78L131.857 36.3998C131.872 36.5431 131.88 36.6776 131.88 36.8032V40.7288H131.162V35.2129H131.769C131.84 35.2129 131.896 35.2199 131.936 35.2339C131.976 35.2481 132.013 35.2871 132.049 35.3511L133.893 38.6545C133.929 38.7212 133.962 38.7915 133.993 38.8658C134.024 38.94 134.053 39.0142 134.081 39.0887C134.135 38.9375 134.198 38.7915 134.27 38.6508L136.079 35.3511C136.112 35.2871 136.149 35.2481 136.188 35.2339C136.228 35.2199 136.284 35.2129 136.355 35.2129H136.962Z"></path>
                                                <path class="letter" d="M141.421 36.1117C141.395 36.1552 141.368 36.1872 141.34 36.2077C141.312 36.2282 141.276 36.2384 141.233 36.2384C141.186 36.2384 141.134 36.2174 141.075 36.1751C141.016 36.1329 140.943 36.0854 140.854 36.0329C140.766 35.9805 140.66 35.933 140.537 35.8908C140.414 35.8485 140.267 35.8275 140.096 35.8275C139.934 35.8275 139.793 35.8485 139.671 35.8908C139.55 35.933 139.448 35.9907 139.366 36.0637C139.284 36.1367 139.222 36.2224 139.179 36.3211C139.137 36.4196 139.116 36.5266 139.116 36.6418C139.116 36.7903 139.154 36.9132 139.23 37.0105C139.305 37.1079 139.404 37.1911 139.527 37.2602C139.65 37.3294 139.79 37.3894 139.946 37.4408C140.102 37.4921 140.262 37.5451 140.426 37.6001C140.59 37.6553 140.75 37.7186 140.906 37.7903C141.063 37.862 141.202 37.9522 141.325 38.061C141.448 38.1699 141.547 38.3029 141.623 38.4606C141.698 38.6181 141.736 38.8108 141.736 39.0387C141.736 39.2819 141.694 39.5099 141.611 39.7223C141.528 39.935 141.407 40.1205 141.248 40.2794C141.089 40.4381 140.894 40.5629 140.662 40.6538C140.431 40.7446 140.167 40.7901 139.873 40.7901C139.696 40.7901 139.524 40.773 139.358 40.7383C139.192 40.7038 139.034 40.6551 138.886 40.5924C138.737 40.5296 138.598 40.4541 138.469 40.3659C138.339 40.2774 138.224 40.1782 138.121 40.068L138.356 39.6763C138.378 39.6456 138.406 39.62 138.438 39.5994C138.47 39.5791 138.507 39.5686 138.548 39.5686C138.601 39.5686 138.663 39.5969 138.734 39.6533C138.804 39.7096 138.891 39.7716 138.995 39.8395C139.099 39.9073 139.223 39.9695 139.368 40.0258C139.513 40.0822 139.688 40.1102 139.896 40.1102C140.065 40.1102 140.216 40.088 140.349 40.043C140.482 39.9983 140.594 39.9343 140.685 39.851C140.776 39.7678 140.846 39.6673 140.895 39.5496C140.943 39.4317 140.968 39.3012 140.968 39.1577C140.968 38.9965 140.93 38.8645 140.856 38.7621C140.782 38.6596 140.683 38.5738 140.561 38.5048C140.438 38.4356 140.298 38.3767 140.142 38.3281C139.985 38.2794 139.825 38.2287 139.662 38.1762C139.498 38.1237 139.338 38.063 139.181 37.9939C139.025 37.9247 138.886 37.8345 138.763 37.723C138.64 37.6116 138.541 37.4721 138.467 37.3044C138.392 37.1367 138.356 36.9298 138.356 36.684C138.356 36.4868 138.394 36.2961 138.471 36.1117C138.548 35.9274 138.66 35.764 138.807 35.6218C138.954 35.4798 139.135 35.3659 139.35 35.2801C139.566 35.1942 139.811 35.1514 140.088 35.1514C140.398 35.1514 140.683 35.2007 140.943 35.2992C141.203 35.3979 141.429 35.5393 141.621 35.7238L141.421 36.1117Z"></path>
                                            </g>
                                            <g id="logo-text">
                                                <path class="stroke" d="M53.2329 21.5091C53.2329 24.4544 55.6205 26.8418 58.5656 26.8418C61.5108 26.8418 63.8984 24.4544 63.8984 21.5091C63.8984 18.5638 61.5108 16.1762 58.5656 16.1762M58.5656 16.1599C55.6113 16.1599 53.2164 18.5549 53.2164 21.5091" stroke="#FAA832" style="stroke-dashoffset: 0; stroke-dasharray: none; opacity: 1;"></path>
                                                <path class="stroke" d="M68.0016 26.9034L68 19.9085C68.0001 17.8272 69.6873 16.1399 71.7686 16.1399C73.85 16.1399 75.5372 17.827 75.5372 19.9083V26.9033" stroke="#FAA832" stroke-linecap="round" style="stroke-dashoffset: 0; stroke-dasharray: 26.8308px, 36.8308px; opacity: 1;"></path>
                                                <path class="stroke" d="M80.5329 21.4706H86.3909M80.5329 21.4706C80.5329 20.9412 80.6122 20.5821 80.6122 20.5821C81.0524 18.0351 83.2694 16.0911 85.9403 16.0911H86.1768M80.5329 21.4706C80.5329 22 80.6023 22.3816 80.6023 22.3816C81.018 24.9558 83.2486 26.9214 85.9403 26.9214H86.1375" stroke="#FAA832" stroke-linecap="round" style="stroke-dashoffset: 0; stroke-dasharray: none; opacity: 1;"></path>
                                                <path class="stroke" d="M92 21.4706H97.858M92 21.4706C92 20.9412 92.0793 20.5821 92.0793 20.5821C92.5194 18.0351 94.7365 16.0911 97.4074 16.0911H97.6439M92 21.4706C92 22 92.0693 22.3816 92.0693 22.3816C92.4851 24.9558 94.7157 26.9214 97.4074 26.9214H97.6045" stroke="#F16337" stroke-linecap="round" style="stroke-dashoffset: 0; stroke-dasharray: none; opacity: 1;"></path>
                                                <path class="stroke" d="M136.939 22.3952C134.878 22.3952 133.207 20.7244 133.207 18.6631V16.2336M136.939 22.3952C139 22.3952 140.671 20.7243 140.671 18.6631C140.671 18.3211 140.671 16.7552 140.67 16.2336M136.939 22.3952L136.947 26.8786" stroke="#F16337" stroke-linecap="round" style="stroke-dashoffset: 0; stroke-dasharray: none; opacity: 1;"></path>
                                                <path class="stroke" d="M129.024 16.242H128.584C126.525 16.242 124.853 17.9438 124.853 20.0071L124.855 26.8787" stroke="#F16337" stroke-linecap="round" style="stroke-dashoffset: 0; stroke-dasharray: 14.1961px, 24.1961px; opacity: 1;"></path>
                                                <path class="stroke" d="M115.912 16.0911V13.3738M119.503 16.1474H115.912V23.141C115.912 25.1928 117.572 26.8753 119.621 26.8753H120.295" stroke="#F16337" stroke-linecap="round" style="stroke-dashoffset: 0; stroke-dasharray: none; opacity: 1;"></path>
                                                <path class="stroke" d="M103.446 26.9034L103.444 19.9085C103.445 17.8272 105.132 16.1399 107.213 16.1399C109.294 16.1399 110.982 17.827 110.982 19.9083V26.9033" stroke="#F16337" style="stroke-dashoffset: 0; stroke-dasharray: none; opacity: 1;"></path>
                                            </g>
                                            <g id="logo" style="translate: none; rotate: none; scale: none;" data-svg-origin="0.33792102336883545 -0.052631400525569916" transform="matrix(1,0,0,1,0.83792,0.44737)">
                                                <mask id="mask" style="mask-type: alpha" maskUnits="userSpaceOnUse" x="1" y="1" width="40" height="40">
                                                    <circle id="logo_mask" cx="21" cy="21" r="20" fill="#D9D9D9"></circle>
                                                </mask>
                                                <g mask="url(#mask)">
                                                    <path id="logo_outer" fill-rule="evenodd" clip-rule="evenodd" d="M21.0246 41.3196C9.5995 41.3196 0.337921 32.0583 0.337921 20.6335C0.337921 9.20876 9.5995 -0.0526314 21.0246 -0.0526314C32.4434 -0.0526314 41.701 9.19872 41.7115 20.6141L41.7115 20.6382C41.709 32.0606 32.4488 41.3196 21.0246 41.3196ZM32.2652 20.6382C32.2606 25.3661 29.1712 29.7057 24.719 31.2523C17.5121 33.7557 9.78608 28.194 9.78625 20.6382C9.78639 14.5107 14.9044 9.394 21.0214 9.394C27.1116 9.394 32.271 14.6126 32.2652 20.6382Z" fill="url(#linear_1)"></path>
                                                    <g id="logo_inner" style="translate: none; rotate: none; scale: none;" data-svg-origin="9.421050071716309 -0.05262760445475578" transform="matrix(1,0,0,1,0,0)">
                                                        <path id="logo_right" filter="url(#blur2)" d="M25.5 10.3971C26.8133 11.0273 28.5226 11.965 29.5332 13.1726C33.3603 17.7442 32.894 24.6716 28.4914 28.6459C27.7214 29.3411 26.3817 30.4134 25.5 30.8379C29.1593 32.5941 34.1276 31.5704 37.3672 28.6459C41.7696 24.6716 42.236 17.7442 38.409 13.1724C36.3205 10.6776 33.3851 9.4 30.4336 9.4C28.9228 9.4 26.9077 9.71944 25.5 10.3971Z" fill="url(#linear_3)" style="translate: none; rotate: none; scale: none; opacity: 1;" data-svg-origin="25.5 9.399999618530273" transform="matrix(1,0,0,1,0,0)"></path>
                                                        <path id="logo_in" filter="url(#blur1)" fill-rule="evenodd" clip-rule="evenodd" d="M29.9473 41.3196C18.6108 41.3196 9.42105 32.0583 9.42105 20.6335C9.42105 9.20876 18.6108 -0.0526276 29.9473 -0.0526276C41.2775 -0.0526276 50.4633 9.19872 50.4737 20.6141L50.4737 20.6382C50.4712 32.0606 41.2829 41.3196 29.9473 41.3196ZM41.1007 20.6382C41.0962 25.3661 38.0307 29.7057 33.613 31.2523C26.462 33.7557 18.7959 28.194 18.7961 20.6382C18.7962 14.5107 23.8746 9.39401 29.9441 9.39401C35.9871 9.39401 41.1064 14.6126 41.1007 20.6382Z" fill="#F16337" fill-opacity="0.9"></path>
                                                        <path id="logo_left" filter="url(#blur2)" d="M13.652 12.1784C8.96731 16.2508 8.47099 23.3498 12.5434 28.0345C15.9038 31.8997 21.3244 32.9137 25.7495 30.8627C21.9009 29.0786 19.232 25.1812 19.232 20.6606C19.232 16.1399 21.9007 12.2429 25.7487 10.4585C24.2586 9.76979 22.6423 9.42105 21.0214 9.42105C18.4068 9.42105 15.7804 10.3284 13.652 12.1784" fill="url(#linear_2)" style="translate: none; rotate: none; scale: none; opacity: 1;" data-svg-origin="9.786249160766602 9.421050071716309" transform="matrix(1,0,0,1,0,0)"></path>
                                                        <path id="logo_center" d="M10.3266 15.7368L31.2292 15.7384C32.623 18.746 32.6007 22.2137 31.2294 25.1814L10.3266 25.1833C9.97219 23.6663 9.78486 22.085 9.78486 20.46C9.78486 18.8351 9.97219 17.2538 10.3266 15.7368" fill="#F16337" style="translate: none; rotate: none; scale: none;" data-svg-origin="9.784859657287598 15.736800193786621" transform="matrix(1,0,0,1,0,0)"></path>
                                                    </g>
                                                </g>
                                            </g>
                                        </g>
                                        <defs>
                                            <filter id="blur1" x="-20" y="-20" width="80" height="80" filterUnits="userSpaceOnUse" color-interpolation-filters="sRGB">
                                                <feFlood flood-opacity="0" result="BackgroundImageFix"></feFlood>
                                                <feBlend mode="normal" in="SourceGraphic" in2="BackgroundImageFix" result="shape"></feBlend>
                                                <feGaussianBlur id="blur_logo1" stdDeviation="0" result="foregroundBlur"></feGaussianBlur>
                                            </filter>

                                            <filter id="blur2" x="-30" y="-30" width="100" height="100" filterUnits="userSpaceOnUse" color-interpolation-filters="sRGB">
                                                <feFlood flood-opacity="0" result="BackgroundImageFix"></feFlood>
                                                <feBlend mode="normal" in="SourceGraphic" in2="BackgroundImageFix" result="shape"></feBlend>
                                                <feGaussianBlur id="blur_logo2" stdDeviation="0" result="foregroundBlur"></feGaussianBlur>
                                            </filter>

                                            <filter id="shadow" x="-1" y="2.3" width="45" height="45" filterUnits="userSpaceOnUse" color-interpolation-filters="sRGB">
                                                <feFlood flood-opacity="0" result="BackgroundImageFix"></feFlood>
                                                <feColorMatrix in="SourceAlpha" type="matrix" values="0 0 0 0 0 0 0 0 0 0 0 0 0 0 0 0 0 0 127 0" result="hardAlpha"></feColorMatrix>
                                                <feOffset dy="3"></feOffset>
                                                <feGaussianBlur stdDeviation="3"></feGaussianBlur>
                                                <feComposite in2="hardAlpha" operator="out"></feComposite>
                                                <feColorMatrix type="matrix" values="0 0 0 0 0.945 0 0 0 0 0.388 0 0 0 0 0.215 0 0 0 1 0"></feColorMatrix>
                                                <feBlend mode="normal" in2="BackgroundImageFix" result="effect1_dropShadow"></feBlend>
                                                <feBlend mode="normal" in="SourceGraphic" in2="effect1_dropShadow" result="shape"></feBlend>
                                            </filter>

                                            <linearGradient id="linear_1" x1="1" y1="21" x2="40.5" y2="21" gradientUnits="userSpaceOnUse">
                                                <stop stop-color="#FED027"></stop>
                                                <stop offset="0.28" stop-color="#F78F34"></stop>
                                                <stop offset="0.78" stop-color="#FAA931"></stop>
                                                <stop offset="1" stop-color="#F47E35"></stop>
                                            </linearGradient>

                                            <linearGradient id="linear_2" x1="10" y1="21" x2="26" y2="21" gradientUnits="userSpaceOnUse">
                                                <stop stop-color="#F16337"></stop>
                                                <stop offset="0.15" stop-color="#F16337"></stop>
                                                <stop offset="0.52" stop-color="#F47E35"></stop>
                                                <stop offset="0.55" stop-color="#F47E35"></stop>
                                                <stop offset="0.92" stop-color="#FCB231"></stop>
                                                <stop offset="1" stop-color="#FCB231"></stop>
                                            </linearGradient>

                                            <linearGradient id="linear_3" x1="31" y1="20" x2="55" y2="20" gradientUnits="userSpaceOnUse">
                                                <stop stop-color="#FCB231"></stop>
                                                <stop offset="0.00481683" stop-color="#FCB231"></stop>
                                                <stop offset="0.421808" stop-color="#F47E35"></stop>
                                                <stop offset="1" stop-color="#F47E35"></stop>
                                            </linearGradient>
                                        </defs>
                                    </svg>